<svg width="364" height="87" viewBox="0 0 364 87" fill="none" xmlns="http://www.w3.org/2000/svg">
<path d="M363.178 67.5767H349.555C349.135 66.6652 348.807 65.3388 348.572 63.5822C348.393 61.8308 348.3 59.7874 348.3 57.447L347.855 54.6252V34.9599C347.855 32.9472 347.256 31.5543 346.062 30.7758C344.926 29.9974 343.343 29.6082 341.31 29.6082C339.277 29.6082 337.484 29.9001 336.112 30.4839C334.74 31.0012 333.541 31.6516 332.527 32.43C331.513 33.1418 330.525 33.7615 329.567 34.2787C328.671 34.796 327.595 35.0572 326.341 35.0572C324.61 35.0572 323.232 34.5706 322.218 33.5976C321.204 32.558 320.697 31.1651 320.697 29.4136C320.697 28.1794 320.964 27.0118 321.501 25.9107C322.039 24.7431 322.966 23.6727 324.282 22.6997C328.046 19.3914 333.695 17.7322 341.223 17.7322C345.643 17.7322 349.35 18.3467 352.336 19.5809C355.322 20.8151 357.565 22.8585 359.06 25.7161C360.555 28.5072 361.303 32.2712 361.303 37.0083V51.7113C361.303 55.2807 361.482 58.3944 361.841 61.0574C362.199 63.6539 362.65 65.8304 363.188 67.5819L363.178 67.5767ZM333.869 68.7444C329.388 68.7444 325.865 67.4436 323.294 64.8471C320.723 62.2507 319.437 58.8092 319.437 54.5279C319.437 50.5027 320.631 47.3583 323.022 45.0844C325.414 42.7492 328.937 41.1872 333.598 40.4088L342.739 38.852C344.772 38.4628 346.114 38.007 346.774 37.4897C347.491 36.9725 347.85 36.1582 347.85 35.0572V44.6952C347.491 45.0179 347.015 45.3456 346.416 45.6683C345.878 45.9295 344.982 46.2214 343.727 46.544L339.154 47.517C337.541 47.8396 336.225 48.4235 335.211 49.2685C334.253 50.0469 333.777 51.2811 333.777 52.966C333.777 54.6508 334.253 55.9824 335.211 56.9554C336.225 57.867 337.572 58.3176 339.246 58.3176C340.921 58.3176 342.293 57.8977 343.548 57.0527C344.864 56.2077 345.909 55.0093 346.687 53.4525C347.466 51.8956 347.855 50.1083 347.855 48.0957L349.468 57.2473C348.152 61.0779 346.124 63.9663 343.374 65.9123C340.624 67.7918 337.459 68.7341 333.874 68.7341L333.869 68.7444Z" fill="white"/>
<path d="M287.348 67.5767V18.8947H300.791V67.5767H287.348ZM300.791 45.6683L299.357 29.9923C300.433 26.0951 302.015 23.0787 304.104 20.938C306.194 18.7974 308.616 17.7271 311.366 17.7271C312.8 17.7271 314.116 18.0497 315.31 18.7001C316.564 19.3505 317.553 20.3235 318.27 21.6192C319.048 22.9199 319.437 24.6048 319.437 26.684C319.437 29.4751 318.807 31.5184 317.553 32.8192C316.298 34.1149 314.772 34.7652 312.98 34.7652C311.843 34.7652 310.829 34.6014 309.932 34.2787C309.098 33.8895 308.201 33.6949 307.244 33.6949C305.272 33.6949 303.69 34.7345 302.491 36.8086C301.354 38.8878 300.786 41.8376 300.786 45.6683H300.791Z" fill="white"/>
<path d="M235.363 43.5276C235.363 38.3347 236.321 33.8229 238.231 29.9923C240.202 26.0951 242.983 23.0787 246.568 20.938C250.153 18.7974 254.455 17.7271 259.473 17.7271C264.492 17.7271 268.405 18.7666 271.933 20.8407C275.518 22.8534 278.294 25.7417 280.271 29.5058C282.304 33.2699 283.318 37.7509 283.318 42.9438C283.318 48.1367 282.329 52.5819 280.358 56.4791C278.447 60.3763 275.697 63.3927 272.113 65.5334C268.528 67.674 264.257 68.7444 259.294 68.7444C254.332 68.7444 250.332 67.7406 246.747 65.728C243.162 63.6488 240.356 60.7297 238.323 56.9656C236.351 53.2015 235.363 48.7205 235.363 43.5276ZM249.523 43.4303C249.523 46.0933 249.943 48.362 250.778 50.2466C251.612 52.1312 252.749 53.5908 254.183 54.6304C255.679 55.6034 257.353 56.0899 259.202 56.0899C261.051 56.0899 262.725 55.5675 264.221 54.5331C265.778 53.4935 266.971 52.0032 267.806 50.052C268.702 48.106 269.152 45.7656 269.152 43.0411C269.152 40.3166 268.733 38.1094 267.898 36.2248C267.063 34.3402 265.895 32.9165 264.4 31.9384C262.966 30.8988 261.322 30.3815 259.468 30.3815C257.614 30.3815 255.853 30.9039 254.357 31.9384C252.862 32.978 251.669 34.4682 250.773 36.4194C249.938 38.3655 249.518 40.7058 249.518 43.4303H249.523Z" fill="white"/>
<path d="M234.666 30.1869C234.666 32.261 234.098 33.8844 232.961 35.0572C231.824 36.1582 230.359 36.7113 228.567 36.7113C227.133 36.7113 225.935 36.3887 224.982 35.7383C224.086 35.0264 223.251 34.2122 222.473 33.3057C221.694 32.3941 220.798 31.6157 219.784 30.9704C218.826 30.2586 217.541 29.9001 215.928 29.9001C213.121 29.9001 210.878 31.037 209.204 33.3108C207.591 35.5846 206.781 38.6676 206.781 42.5597C206.781 45.1561 207.201 47.4607 208.036 49.4733C208.932 51.4859 210.279 53.0428 212.072 54.149C213.925 55.25 216.373 55.8031 219.421 55.8031C221.51 55.8031 223.661 55.5419 225.873 55.0247C228.086 54.4409 230.446 53.5651 232.956 52.3975V64.1763C231.046 65.4105 228.772 66.4808 226.145 67.3872C223.574 68.2988 220.496 68.7495 216.911 68.7495C209.204 68.7495 203.171 66.5115 198.808 62.0305C194.444 57.5494 192.263 51.3835 192.263 43.5327C192.263 38.3398 193.22 33.8281 195.131 29.9974C197.041 26.1002 199.791 23.0838 203.376 20.9432C206.961 18.8025 211.293 17.7322 216.373 17.7322C219.718 17.7322 222.739 18.2494 225.428 19.289C228.116 20.262 230.267 21.6601 231.88 23.473C233.734 25.4857 234.661 27.7236 234.661 30.192L234.666 30.1869Z" fill="white"/>
<path d="M170.59 68.7444C162.642 68.7444 156.579 66.6037 152.395 62.3173C148.211 58.0308 146.121 51.9981 146.121 44.2087C146.121 38.8212 147.104 34.1456 149.076 30.1869C151.048 26.2282 153.828 23.176 157.413 21.0353C161.06 18.8281 165.3 17.7271 170.139 17.7271C174.503 17.7271 178.175 18.5413 181.165 20.1596C184.151 21.7165 186.425 23.7957 187.977 26.3921C189.528 28.9885 190.307 31.8103 190.307 34.8626C190.307 37.9148 189.62 40.2193 188.248 42.1654C186.932 44.1114 185.114 45.6068 182.779 46.6464C180.448 47.686 177.791 48.3313 174.8 48.5925C171.87 48.7871 168.767 48.6591 165.479 48.2033C162.191 47.7475 158.934 47.0049 155.708 45.9653V37.2029C158.817 38.0479 161.623 38.6317 164.132 38.9544C166.703 39.277 168.91 39.3129 170.764 39.0517C172.674 38.7905 174.139 38.2425 175.158 37.3976C176.172 36.5526 176.684 35.4157 176.684 33.992C176.684 32.4351 176.085 31.1036 174.892 29.9974C173.755 28.8964 172.111 28.3433 169.96 28.3433C168.05 28.3433 166.314 28.8964 164.762 29.9974C163.267 31.037 162.074 32.6912 161.177 34.965C160.281 37.1722 159.831 40.0298 159.831 43.5327C159.831 46.7796 160.281 49.4733 161.177 51.614C162.074 53.7546 163.446 55.3473 165.3 56.3869C167.154 57.3599 169.632 57.8465 172.736 57.8465C175.547 57.8465 178.262 57.5238 180.894 56.8734C183.583 56.1616 186.153 55.1527 188.601 53.8571V63.9817C186.45 65.3439 183.823 66.4808 180.715 67.3872C177.668 68.2988 174.293 68.7495 170.585 68.7495L170.59 68.7444Z" fill="white"/>
<path d="M87.8426 80.9697C70.2344 90.2078 47.5348 87.8225 32.5588 73.8138L0 43.3577C0.035639 43.3552 0.0712781 43.3527 0.109463 43.3476C10.5542 42.4922 22.2133 42.2682 32.6021 43.6912C32.7981 43.6378 32.9941 43.5843 33.1876 43.5308C37.7239 44.1927 42.0032 45.1804 45.8089 46.578C60.5202 51.9798 75.3002 66.1362 86.7021 79.6103C87.0865 80.066 87.4659 80.5191 87.8426 80.9697Z" fill="white"/>
<path d="M97.9311 73.8138C97.2132 74.4859 96.4775 75.1325 95.724 75.7485C95.1767 75.0841 94.6167 74.4172 94.049 73.7451C82.5249 60.1285 66.3957 44.2614 49.1693 37.9381C48.8918 37.8362 48.6092 37.7344 48.3267 37.6377C43.2175 35.8557 37.5586 34.7076 31.7087 34.0203C24.7209 33.2006 17.4632 33.0377 10.5595 33.2388L23.0739 21.5314C33.6816 21.3634 44.4802 22.1652 53.2194 24.8534C54.0289 25.1029 54.8206 25.3677 55.5945 25.6502C58.2114 26.6049 60.8283 27.8395 63.43 29.2931C75.3945 35.9906 86.9925 47.413 96.3172 58.3821C99.1836 61.75 101.795 65.0288 104.094 68.0429L97.926 73.8138H97.9311Z" fill="white"/>
<path d="M80.9923 3.26383C75.4301 8.38822 69.1373 13.7188 62.511 18.5301C61.3272 18.0057 60.141 17.522 58.9471 17.0867C51.1319 14.2305 41.937 12.9195 32.7294 12.5045C45.9643 0.252334 65.1457 -2.99845 81.5346 2.76234C81.3538 2.92781 81.1756 3.09582 80.9923 3.26383Z" fill="white"/>
<path d="M110.965 61.6228C108.765 58.7716 106.311 55.7092 103.641 52.5704C95.0469 42.4668 83.8817 31.1132 71.6117 23.4152C77.4183 18.9883 82.8176 14.3348 87.5653 9.96397C88.6166 8.99662 89.64 8.03691 90.6302 7.09502C93.2115 8.68351 95.6604 10.5418 97.9311 12.6674L130.617 43.2406L110.962 61.6253L110.965 61.6228Z" fill="white"/>
</svg>
